<?xml version="1.0" encoding="UTF-8"?><svg xmlns="http://www.w3.org/2000/svg" width="1600" height="1000" viewBox="0 0 1600 1000" role="img" aria-labelledby="title desc"><title id="title">Mappa BANDO: AGCM: concorrenza e consumatore</title><desc id="desc">Dal bando alla risposta: cinque domande per scegliere la priorità giusta.</desc><defs><style>.bg{fill:#F8FAFC}.card{fill:#FFFFFF;stroke:#CBD5E1;stroke-width:3}.softBlue{fill:#EAF2FB;stroke:#B9CBE0;stroke-width:2.5}.softRed{fill:#F8E8EA;stroke:#E3B9BF;stroke-width:2.5}.softGold{fill:#FFF4CC;stroke:#E8D080;stroke-width:2.5}.softGreen{fill:#E7F3ED;stroke:#A8D1BD;stroke-width:2.5}.softTeal{fill:#E4F4F5;stroke:#A3D5D8;stroke-width:2.5}.note{fill:#FFF7ED;stroke:#E7C18E;stroke-width:2.5}.ink{fill:#0F172A;font-family:Arial,Helvetica,sans-serif}.muted{fill:#526174;font-family:Arial,Helvetica,sans-serif}.title{font-size:43px;font-weight:700}.subtitle{font-size:22px}.label{font-family:Arial,Helvetica,sans-serif;font-size:25px;font-weight:700}.body{font-family:Arial,Helvetica,sans-serif;font-size:20px}.small{font-family:Arial,Helvetica,sans-serif;font-size:18px}.navy{fill:#10233F}.bordeaux{fill:#7A2430}.gold{fill:#D4AF37}.green{fill:#2F7D5A}.teal{fill:#1F6F78}.line{stroke:#94A3B8;stroke-width:4;stroke-linecap:round;fill:none}.thin{stroke:#CBD5E1;stroke-width:2.5;stroke-linecap:round;fill:none}.arrowNavy{stroke:#10233F;stroke-width:5;stroke-linecap:round;fill:none;marker-end:url(#arrowNavy)}</style><marker id="arrowNavy" viewBox="0 0 10 10" refX="9" refY="5" markerWidth="8" markerHeight="8" orient="auto"><path d="M0 0 L10 5 L0 10 z" fill="#10233F"/></marker></defs><rect class="bg" width="1600" height="1000"/><text class="ink title" x="800" y="70" text-anchor="middle">Mappa BANDO: AGCM: concorrenza e consumatore</text><text class="muted subtitle" x="800" y="112" text-anchor="middle">Dal bando alla risposta: cinque domande per scegliere la priorità giusta.</text>
  <g data-safe-box="520 180 560 145 8"><rect class="softBlue" x="520" y="180" width="560" height="145" rx="22"/><rect x="520" y="180" width="560" height="10" rx="5" fill="#10233F"/><text class="navy label" x="800" y="228" text-anchor="middle" style="font-size:23px">Bando e prova</text><text class="muted small" x="800" y="272" text-anchor="middle" style="font-size:16px">profilo, programma, criteri e output</text></g>
  <path class="line" d="M800 325 L800 405"/><path class="line" d="M210 405 L1390 405"/>
  <path class="line" d="M210 405 L210 485"/><g data-safe-box="80 500 260 145 8"><rect class="softBlue" x="80" y="500" width="260" height="145" rx="22"/><rect x="80" y="500" width="260" height="10" rx="5" fill="#10233F"/><text class="navy label" x="210" y="548" text-anchor="middle" style="font-size:23px">Bando</text><text class="muted small" x="210" y="592" text-anchor="middle" style="font-size:18px">mercato</text></g>
<path class="line" d="M514 405 L514 485"/><g data-safe-box="384 500 260 145 8"><rect class="softRed" x="384" y="500" width="260" height="145" rx="22"/><rect x="384" y="500" width="260" height="10" rx="5" fill="#7A2430"/><text class="bordeaux label" x="514" y="548" text-anchor="middle" style="font-size:23px">Aree</text><text class="muted small" x="514" y="592" text-anchor="middle" style="font-size:18px">condotta</text></g>
<path class="line" d="M818 405 L818 485"/><g data-safe-box="688 500 260 145 8"><rect class="softGold" x="688" y="500" width="260" height="145" rx="22"/><rect x="688" y="500" width="260" height="10" rx="5" fill="#D4AF37"/><text class="gold label" x="818" y="548" text-anchor="middle" style="font-size:23px">Nuclei</text><text class="muted small" x="818" y="592" text-anchor="middle" style="font-size:18px">istruttoria</text></g>
<path class="line" d="M1122 405 L1122 485"/><g data-safe-box="992 500 260 145 8"><rect class="softGreen" x="992" y="500" width="260" height="145" rx="22"/><rect x="992" y="500" width="260" height="10" rx="5" fill="#2F7D5A"/><text class="green label" x="1122" y="548" text-anchor="middle" style="font-size:23px">Diario</text><text class="muted small" x="1122" y="592" text-anchor="middle" style="font-size:18px">impegni o sanzione</text></g>
<path class="line" d="M1426 405 L1426 485"/><g data-safe-box="1296 500 260 145 8"><rect class="softTeal" x="1296" y="500" width="260" height="145" rx="22"/><rect x="1296" y="500" width="260" height="10" rx="5" fill="#1F6F78"/><text class="teal label" x="1426" y="548" text-anchor="middle" style="font-size:23px">Output</text><text class="muted small" x="1426" y="592" text-anchor="middle" style="font-size:18px">tutela</text></g>
  <g data-safe-box="220 850 1160 70 8"><rect class="note" x="220" y="850" width="1160" height="70" rx="24"/><text class="ink body" x="800" y="894" text-anchor="middle" style="font-weight:700;font-size:18px">Obiettivo: leggere la materia come funzione, procedura e prestazione concorsuale.</text></g></svg>