<svg xmlns="http://www.w3.org/2000/svg" width="1600" height="900" viewBox="0 0 1600 900" role="img" aria-labelledby="title desc">
  <title id="title">Mappa BANDO dei concorsi paralleli</title>
  <desc id="desc">Piu bandi entrano nel metodo solo se condividono decisioni, studio e output.</desc>
  <style>
    .bg { fill: #F8FAFC; }
    .card { fill: #FFFFFF; stroke: #CBD5E1; stroke-width: 3; }
    .title { font: 800 44px Arial, sans-serif; fill: #0F172A; }
    .subtitle { font: 400 22px Arial, sans-serif; fill: #526174; }
    .label { font: 800 25px Arial, sans-serif; fill: #0F172A; }
    .body { font: 400 19px Arial, sans-serif; fill: #0F172A; }
    .small { font: 400 16px Arial, sans-serif; fill: #0F172A; }
    .strong { font-weight: 800; }
    .muted { fill: #526174; }
    .navy { fill: #10233F; }
    .whiteText { fill: #FFFFFF; }
    .line { stroke: #10233F; stroke-width: 6; stroke-linecap: round; stroke-linejoin: round; fill: none; }
  </style>
  <defs>
    <marker id="arrow" markerWidth="12" markerHeight="12" refX="10" refY="6" orient="auto" markerUnits="strokeWidth">
      <path d="M2,2 L10,6 L2,10 Z" fill="#10233F"/>
    </marker>
  </defs>
  <rect class="bg" width="1600" height="900"/>
  <g data-safe-box="80 16 1440 118 0">
    <text class="title" x="800" y="68" text-anchor="middle">Mappa BANDO dei concorsi paralleli</text>
    <text class="subtitle" x="800" y="108" text-anchor="middle">Piu bandi entrano nel metodo solo se condividono decisioni, studio e output.</text>
  </g>

    <rect class="card" x="70" y="165" width="1460" height="630" rx="30"/>
    <g data-safe-box="440 205 720 150 8">
    <rect x="440" y="205" width="720" height="150" rx="24" fill="#EAF2FB" stroke="#10233F" stroke-width="3"/>
    <rect x="440" y="205" width="720" height="12" rx="6" fill="#10233F"/>
    <text class="label" x="800" y="257" text-anchor="middle">Portafoglio ordinato</text>
    <text class="small" x="800" y="287" text-anchor="middle">guida, satellite, parcheggio</text>
<text class="small" x="800" y="315" text-anchor="middle">un solo sistema</text>
  </g>
    <g data-safe-box="115 390 240 205 8">
    <rect x="115" y="390" width="240" height="205" rx="24" fill="#EAF2FB" stroke="#10233F" stroke-width="3"/>
    <circle cx="235" cy="440" r="32" fill="#10233F"/>
    <text class="label whiteText" x="235" y="449" text-anchor="middle">B</text>
    <text class="label" x="235" y="502" text-anchor="middle">Bando</text>
    <text class="small" x="235" y="542" text-anchor="middle">procedure compatibili</text>
  </g>
<g data-safe-box="400 390 240 205 8">
    <rect x="400" y="390" width="240" height="205" rx="24" fill="#F8E8EA" stroke="#7A2430" stroke-width="3"/>
    <circle cx="520" cy="440" r="32" fill="#7A2430"/>
    <text class="label whiteText" x="520" y="449" text-anchor="middle">A</text>
    <text class="label" x="520" y="502" text-anchor="middle">Aree</text>
    <text class="small" x="520" y="542" text-anchor="middle">comune e specifico</text>
  </g>
<g data-safe-box="685 390 240 205 8">
    <rect x="685" y="390" width="240" height="205" rx="24" fill="#FFF4CC" stroke="#D4AF37" stroke-width="3"/>
    <circle cx="805" cy="440" r="32" fill="#D4AF37"/>
    <text class="label whiteText" x="805" y="449" text-anchor="middle">N</text>
    <text class="label" x="805" y="502" text-anchor="middle">Nuclei</text>
    <text class="small" x="805" y="542" text-anchor="middle">studio una volta</text>
  </g>
<g data-safe-box="970 390 240 205 8">
    <rect x="970" y="390" width="240" height="205" rx="24" fill="#E7F3ED" stroke="#2F7D5A" stroke-width="3"/>
    <circle cx="1090" cy="440" r="32" fill="#2F7D5A"/>
    <text class="label whiteText" x="1090" y="449" text-anchor="middle">D</text>
    <text class="label" x="1090" y="502" text-anchor="middle">Diario</text>
    <text class="small" x="1090" y="542" text-anchor="middle">errori condivisi</text>
  </g>
<g data-safe-box="1255 390 240 205 8">
    <rect x="1255" y="390" width="240" height="205" rx="24" fill="#E4F4F5" stroke="#1F6F78" stroke-width="3"/>
    <circle cx="1375" cy="440" r="32" fill="#1F6F78"/>
    <text class="label whiteText" x="1375" y="449" text-anchor="middle">O</text>
    <text class="label" x="1375" y="502" text-anchor="middle">Output</text>
    <text class="small" x="1375" y="542" text-anchor="middle">prova prioritaria</text>
  </g>
    <path class="line" marker-end="url(#arrow)" d="M365 513 L392 513"/>
<path class="line" marker-end="url(#arrow)" d="M650 513 L677 513"/>
<path class="line" marker-end="url(#arrow)" d="M935 513 L962 513"/>
<path class="line" marker-end="url(#arrow)" d="M1220 513 L1247 513"/>
    <g data-safe-box="250 812 1100 66 8">
    <rect x="250" y="812" width="1100" height="66" rx="22" fill="#FFF7ED" stroke="#EFC58D" stroke-width="3"/>
    <text class="body strong" x="800" y="855" text-anchor="middle">Se due concorsi non condividono nulla, competono per lo stesso tempo.</text>
  </g>

</svg>
